<svg width="1920" height="410" viewBox="0 0 1920 410" fill="none" xmlns="http://www.w3.org/2000/svg">
<rect width="1920" height="410" fill="#303030"/>
<mask id="mask0_219_876" style="mask-type:alpha" maskUnits="userSpaceOnUse" x="0" y="0" width="1920" height="410">
<rect width="1920" height="410" fill="#303030"/>
</mask>
<g mask="url(#mask0_219_876)">
<circle cy="470" r="256" fill="white" fill-opacity="0.1"/>
<circle cx="310" cy="74" r="12" fill="white" fill-opacity="0.1"/>
<circle cx="1677" cy="286" r="12" fill="white" fill-opacity="0.1"/>
<circle cx="1920" cy="-55" r="256" fill="white" fill-opacity="0.1"/>
<ellipse cx="960" cy="-475" rx="983" ry="522" fill="white" fill-opacity="0.1"/>
<ellipse cx="960" cy="893" rx="983" ry="522" fill="white" fill-opacity="0.1"/>
<path fill-rule="evenodd" clip-rule="evenodd" d="M112.153 69.5104C112.102 65.8516 111.623 62.1613 110.664 58.4457C107.302 45.4064 92.3007 37.0353 76.3344 35.0671C60.3744 33.0989 43.7773 37.5778 37.3807 48.9201C33.7219 55.405 33.2172 60.9942 34.7123 65.7065C36.2011 70.3936 39.7334 74.2794 44.5277 77.3074C57.895 85.7416 81.3054 87.4638 91.9853 83.9374C96.9247 82.3036 101.75 80.3355 106.45 78.0835C103.763 92.8259 93.7514 106.792 80.3904 119.378C51.3534 146.73 6.29334 167.491 -18.2459 175.124C-19.5643 175.534 -20.2962 176.934 -19.8861 178.253C-19.4761 179.571 -18.0757 180.309 -16.7572 179.899C8.26775 172.115 54.2048 150.913 83.8159 123.017C99.1135 108.609 110.014 92.3906 111.875 75.3393C146.457 56.8623 174.857 23.3401 199.138 -4.87055C200.04 -5.91142 199.92 -7.49486 198.873 -8.39694C197.826 -9.29272 196.248 -9.17922 195.346 -8.13204C172.056 18.9242 145.025 51.1092 112.153 69.5104ZM107.125 72.1915C107.314 68.0785 106.911 63.9023 105.819 59.6884C102.911 48.4029 89.5438 41.7287 75.7224 40.0255C67.2503 38.9846 58.5387 39.8426 51.7068 42.8958C47.4109 44.8135 43.8717 47.5954 41.7395 51.3804C38.9386 56.345 38.333 60.5906 39.4811 64.1926C40.6292 67.8199 43.4809 70.7342 47.1964 73.0746C59.3777 80.7644 80.6933 82.3983 90.4144 79.1874C96.1486 77.2949 101.713 74.9356 107.125 72.1915Z" fill="white" fill-opacity="0.1"/>
<path fill-rule="evenodd" clip-rule="evenodd" d="M1810.59 344.502C1810.64 348.161 1811.12 351.851 1812.08 355.567C1815.44 368.606 1830.44 376.977 1846.41 378.946C1862.37 380.914 1878.97 376.435 1885.36 365.093C1889.02 358.608 1889.53 353.018 1888.03 348.306C1886.54 343.619 1883.01 339.733 1878.22 336.705C1864.85 328.271 1841.44 326.549 1830.76 330.075C1825.82 331.709 1820.99 333.677 1816.29 335.929C1818.98 321.187 1828.99 307.22 1842.35 294.635C1871.39 267.282 1916.45 246.522 1940.99 238.889C1942.31 238.479 1943.04 237.078 1942.63 235.76C1942.22 234.442 1940.82 233.703 1939.5 234.114C1914.48 241.898 1868.54 263.1 1838.93 290.995C1823.63 305.403 1812.73 321.622 1810.87 338.673C1776.29 357.15 1747.89 390.673 1723.61 418.883C1722.7 419.924 1722.82 421.508 1723.87 422.41C1724.92 423.305 1726.49 423.192 1727.4 422.145C1750.69 395.088 1777.72 362.904 1810.59 344.502ZM1815.62 341.821C1815.43 345.934 1815.83 350.11 1816.92 354.324C1819.83 365.61 1833.2 372.284 1847.02 373.987C1855.49 375.028 1864.2 374.17 1871.04 371.117C1875.33 369.199 1878.87 366.417 1881 362.632C1883.8 357.668 1884.41 353.422 1883.26 349.82C1882.11 346.193 1879.26 343.279 1875.55 340.938C1863.37 333.248 1842.05 331.614 1832.33 334.825C1826.59 336.718 1821.03 339.077 1815.62 341.821Z" fill="white" fill-opacity="0.1"/>
</g>
</svg>
