<svg width="74" height="477" viewBox="0 0 74 477" fill="none" xmlns="http://www.w3.org/2000/svg">
<rect x="35" width="2" height="477" fill="#D9D9D9"/>
<circle cx="37" cy="238" r="36" fill="#FFFAF1" stroke="#D9D9D9" stroke-width="2"/>
<path opacity="0.6" d="M48.7072 253C45.8322 253 43.474 252.105 41.7135 250.364C39.9691 248.574 39.0808 245.971 39.0808 242.606C39.0808 241.147 39.2746 239.605 39.6461 238.03L39.6945 237.864C39.9206 237.019 40.2275 236.157 40.599 235.311C40.1145 235.212 39.6945 234.914 39.4199 234.466C39.1454 234.002 39 233.405 39 232.609C39 231.548 39.2423 230.67 39.6945 229.973L39.8399 229.774C40.1952 229.277 40.5344 228.879 40.8736 228.564L40.8897 228.548C41.5035 228.001 42.2788 227.47 43.1994 226.94C44.1201 226.376 45.2345 225.912 46.4944 225.547L46.7367 225.481C47.9319 225.166 49.2725 225 50.7261 225C54.4249 225 57.2676 226.111 59.1573 228.316L59.2381 228.415C61.0794 230.554 62 233.521 62 237.218C62 239.323 61.7093 241.329 61.1278 243.153L61.0632 243.335C60.4333 245.225 59.5288 246.916 58.3497 248.342C57.2029 249.784 55.7816 250.928 54.1503 251.757C52.5351 252.586 50.6938 253 48.7072 253ZM42.1011 234.3L41.7135 235.096C41.2289 236.091 40.8413 237.102 40.5667 238.113L40.5344 238.262C40.1791 239.754 40.0014 241.23 40.0014 242.622C40.0014 245.722 40.7928 248.11 42.3595 249.718C43.9424 251.292 46.0906 252.088 48.7233 252.088C50.5646 252.088 52.2767 251.707 53.7788 250.944C55.2971 250.182 56.6053 249.121 57.6714 247.778C58.7697 246.435 59.6257 244.844 60.2233 243.07L60.2718 242.904C60.8209 241.163 61.1117 239.257 61.1117 237.251C61.1117 233.786 60.2556 231.034 58.5758 229.062L58.4951 228.962C56.783 226.973 54.1664 225.962 50.7423 225.962C49.3694 225.962 48.1096 226.111 46.9951 226.409L46.769 226.475C45.5899 226.824 44.5562 227.255 43.684 227.785C42.8118 228.282 42.085 228.796 41.5197 229.294C41.2289 229.575 40.9221 229.924 40.6152 230.371L40.486 230.57C40.1306 231.084 39.9529 231.797 39.9529 232.659C39.9529 233.256 40.0499 233.72 40.2275 234.018C40.4052 234.317 40.6959 234.466 41.0674 234.466C41.132 234.466 41.2128 234.466 41.2774 234.449L42.1011 234.3ZM50.0639 247.645C48.8848 247.645 47.7542 247.38 46.7044 246.85C45.703 246.336 44.8792 245.557 44.2493 244.529L44.1847 244.429C43.5386 243.319 43.2156 241.909 43.2156 240.235C43.2156 238.544 43.5063 236.936 44.1039 235.444V235.427C44.6692 233.969 45.283 232.692 45.9129 231.664L45.9775 231.548L46.0906 231.499C46.6559 231.233 47.2858 230.985 47.9803 230.769C48.7556 230.504 49.6117 230.371 50.5646 230.371C51.8244 230.371 53.0197 230.653 54.1503 231.2C55.297 231.731 56.2662 232.609 57.0091 233.819V233.836C57.7521 235.03 58.1236 236.638 58.1236 238.627C58.1236 240.749 57.7036 242.506 56.8961 243.849L56.8799 243.866C56.0885 245.175 55.0548 246.137 53.7949 246.75C52.6159 247.33 51.3399 247.645 50.0639 247.645ZM44.9438 235.792C44.3947 237.185 44.1201 238.677 44.1201 240.218C44.1201 241.727 44.3947 242.987 44.96 243.948L45.0084 244.031C45.5576 244.927 46.236 245.573 47.092 246.004C48.0126 246.468 49.014 246.7 50.0478 246.7C51.1945 246.7 52.3413 246.419 53.4396 245.872C54.5541 245.341 55.4424 244.496 56.1531 243.319C56.8799 242.125 57.2514 240.533 57.2514 238.577C57.2514 236.754 56.9284 235.311 56.2823 234.284L56.2662 234.267C55.6039 233.206 54.8125 232.46 53.8111 232.012L53.7949 231.996C52.7935 231.499 51.7114 231.25 50.5808 231.25C49.7247 231.25 48.9494 231.366 48.2711 231.598H48.2549C47.6412 231.797 47.092 232.012 46.5913 232.228C46.0098 233.189 45.4445 234.366 44.9115 235.726L44.9438 235.792Z" fill="#0A0B39"/>
<path opacity="0.6" d="M31.3817 253C29.8177 253 28.4677 252.565 27.3811 251.726L27.3646 251.71C26.4427 251.048 25.5043 249.79 24.8787 248.403L24.7634 248.145C24.4177 247.403 24.0555 246.516 23.7098 245.532C22.8043 247.5 21.8329 249.097 20.8451 250.306C19.3799 252.081 17.5689 252.984 15.4451 252.984C14.2104 252.984 13.1567 252.645 12.3171 251.968L12.3006 251.952C11.428 251.242 11 250.29 11 249.113C11 248.113 11.3128 247.226 11.9219 246.5L11.9713 246.435C12.6299 245.677 13.3872 245.29 14.1939 245.29C14.6549 245.29 15.05 245.435 15.3463 245.71C15.5439 245.887 15.7415 246.113 15.9061 246.371L16.0213 246.565C16.0707 246.694 16.153 246.774 16.2848 246.855C16.4659 246.935 16.647 246.984 16.828 246.984C17.4701 246.984 18.1945 246.387 18.9189 245.242L19.0012 245.113C19.8244 243.79 20.7299 241.968 21.6683 239.661C20.911 237.29 20.0549 235.355 19.1494 233.935C18.3262 232.613 17.3713 231.968 16.2189 231.968C16.0707 231.968 15.9226 231.984 15.7415 232.016L15.6427 232.032C15.4451 232.048 15.2311 232.081 15.0006 232.129C14.5561 232.242 13.8976 232.194 13.2226 231.355L13.2061 231.339C12.7945 230.79 12.597 230.177 12.597 229.484C12.597 228.452 13.0744 227.565 13.9963 226.903L14.0128 226.887C14.8689 226.29 15.972 226 17.289 226C19.4128 226 21.1744 226.839 22.5244 228.5C23.4957 229.677 24.3518 231.355 25.1256 233.613C25.603 232.677 26.1299 231.806 26.6732 230.984L26.7719 230.839C27.7762 229.403 28.9287 228.242 30.1799 227.387L30.3116 227.306C31.6451 226.435 33.0774 226 34.6085 226C35.6457 226 36.4689 226.242 37.0451 226.71C37.6707 227.21 38 227.968 38 228.903C38 229.806 37.7366 230.629 37.2098 231.355C36.5018 232.371 35.7116 232.581 35.1683 232.581C34.7896 232.581 34.3616 232.468 33.8677 232.226C33.4561 232.032 33.061 231.935 32.7317 231.935C31.9085 231.935 31.0524 232.5 30.1963 233.597C29.1921 234.839 28.1549 236.758 27.1012 239.306C27.661 240.806 28.2372 242.161 28.8299 243.323L28.9451 243.548C29.5213 244.629 30.1469 245.5 30.8055 246.129C31.4146 246.677 32.0896 246.952 32.8469 246.952C33.061 246.952 33.2421 246.935 33.3738 246.903H33.3902C33.6207 246.855 33.8018 246.823 33.9665 246.79C34.197 246.726 34.3945 246.694 34.5756 246.694C35.1518 246.694 35.6622 246.935 35.975 247.371C36.2384 247.726 36.3537 248.194 36.3537 248.79C36.3537 249.468 36.1561 250.129 35.761 250.79C35.3988 251.403 34.839 251.935 34.0982 252.339L34.0817 252.355C33.275 252.774 32.3695 253 31.3817 253ZM23.825 242.968L24.2037 244.129C24.6646 245.565 25.1421 246.774 25.603 247.758L25.7183 248C26.311 249.258 27.0683 250.258 27.9573 251C28.8628 251.71 30.0152 252.081 31.3817 252.081C32.2049 252.081 32.9622 251.903 33.6043 251.548H33.6207C34.2134 251.21 34.6744 250.806 34.9543 250.323C35.2671 249.806 35.4317 249.29 35.4317 248.774C35.4317 248.371 35.3659 248.081 35.2177 247.871C35.0695 247.677 34.8555 247.565 34.5756 247.565C34.4768 247.565 34.3616 247.581 34.2134 247.629L34.1476 247.645C33.9994 247.677 33.8183 247.71 33.5878 247.758C33.3738 247.806 33.1268 247.839 32.8469 247.839C31.8591 247.839 30.9537 247.484 30.1799 246.758C29.439 246.065 28.7476 245.113 28.1384 243.952L28.0232 243.71C27.3976 242.468 26.7719 241.032 26.1957 239.435L26.1299 239.274L26.1957 239.113C27.2988 236.403 28.4018 234.355 29.4719 233.032C30.5091 231.71 31.6122 231.032 32.7317 231.032C33.1927 231.032 33.7195 231.161 34.2628 231.419C34.6415 231.597 34.9378 231.694 35.1683 231.694C35.6457 231.694 36.0738 231.403 36.4689 230.855C36.8969 230.29 37.0945 229.645 37.0945 228.919C37.0945 228.258 36.8805 227.742 36.4689 227.419C36.0573 227.081 35.4317 226.919 34.6085 226.919C33.275 226.919 31.9909 227.306 30.822 228.081L30.7067 228.161C29.5543 228.952 28.4841 230.032 27.5293 231.387L27.4305 231.516C26.7061 232.581 26.0476 233.774 25.4549 235.032L24.961 236.113L24.6152 234.984C23.7921 232.323 22.8537 230.339 21.8165 229.097C20.6476 227.661 19.1165 226.935 17.289 226.935C16.1695 226.935 15.2476 227.177 14.5396 227.661C13.8646 228.145 13.5189 228.774 13.5189 229.516C13.5189 230 13.6671 230.435 13.947 230.823C14.2598 231.194 14.5396 231.355 14.803 231.29H14.836C15.0994 231.242 15.3463 231.21 15.5768 231.177C15.8073 231.129 16.0378 231.097 16.2518 231.097C17.7171 231.097 18.9518 231.903 19.9561 233.484C20.9274 235.016 21.8329 237.065 22.6232 239.581L22.6726 239.726L22.6067 239.871C21.6189 242.274 20.6805 244.21 19.8079 245.597L19.7256 245.726C18.8037 247.161 17.8488 247.887 16.8445 247.887C16.5152 247.887 16.186 247.806 15.8732 247.661L15.8402 247.645C15.5274 247.468 15.3134 247.226 15.1817 246.919L15.1323 246.823C15.0171 246.645 14.9018 246.5 14.7537 246.387L14.7372 246.371C14.6055 246.242 14.4244 246.194 14.1939 246.194C13.6671 246.194 13.1567 246.468 12.6628 247.032L12.6134 247.097C12.1524 247.661 11.9055 248.339 11.9055 249.129C11.9055 250.016 12.2348 250.742 12.8933 251.29C13.5683 251.823 14.4244 252.097 15.4451 252.097C17.2726 252.097 18.853 251.306 20.1207 249.742C21.2402 248.371 22.3268 246.468 23.3476 244.097L23.825 242.968Z" fill="#0A0B39"/>
</svg>
