<svg width="127" height="90" viewBox="0 0 127 90" fill="none" xmlns="http://www.w3.org/2000/svg">
<path d="M117.923 9.21063C112.492 3.07021 104.594 0 94.4458 0C90.515 0 86.8343 0.464103 83.5468 1.35661L83.2609 1.428C79.9733 2.35621 77.0074 3.57001 74.4702 5.06942C73.5769 5.56922 72.755 6.06902 71.9688 6.56882C71.2899 5.28362 70.3965 4.14121 69.253 3.21301C66.966 1.3209 64.0001 0.392703 60.3909 0.392703C55.8526 0.392703 51.6002 1.71361 47.6694 4.31972L47.3478 4.53391C44.5248 6.49742 41.9162 9.03213 39.5578 12.0666C38.7001 10.5672 37.8068 9.24633 36.8777 8.10393C32.804 3.03451 27.2651 0.357001 20.8687 0.357001C16.7949 0.357001 13.2572 1.3923 10.3628 3.39151L10.2913 3.46291C6.86079 5.96192 4.96686 9.56764 4.96686 13.6374C4.96686 16.315 5.78876 18.8497 7.36107 20.9917L7.53974 21.2416C10.0411 24.3475 13.4002 25.6684 16.7949 24.883C17.1166 24.8116 17.4382 24.7759 17.724 24.7402L18.1171 24.7045L18.5102 24.6331C19.1177 24.6688 19.8324 25.3828 20.6543 26.7037L20.69 26.7394C22.3338 29.3455 23.8703 32.8441 25.3355 37.1281C23.5487 41.3764 21.8692 44.8036 20.3326 47.267L20.154 47.5526C20.1182 47.5883 20.0825 47.624 20.0825 47.6954C20.011 47.6597 19.9753 47.5883 19.9038 47.5526C18.3315 46.1246 16.3304 45.3035 14.1149 45.2321H13.7575C10.3628 45.2321 7.25386 46.7672 4.71672 49.7303L4.50232 49.9802C2.39399 52.5863 1.25049 55.7993 1.25049 59.2979C1.25049 63.5819 2.93001 67.2233 6.11037 69.9008L6.21757 70.0079C9.11205 72.3284 12.614 73.5065 16.6163 73.5065C23.0127 73.5065 28.6588 70.6862 32.9826 65.3312C33.6616 64.5101 34.3048 63.6176 34.948 62.6537C36.4846 65.2598 38.3428 67.4732 40.4511 69.2582L40.6298 69.401C44.0245 72.1142 48.2055 73.5065 52.9939 73.5065C56.1742 73.5065 59.0687 72.7568 61.6773 71.3288L61.7131 71.2931C64.1787 69.9008 66.1084 68.0444 67.3948 65.831L67.4663 65.6882C67.7164 65.2598 67.9308 64.8314 68.1453 64.403C68.6813 65.0456 69.2173 65.6525 69.789 66.2594L69.8605 66.3308C74.9705 71.2574 81.6528 73.7564 89.7288 73.7564C95.1247 73.7564 100.163 72.614 104.702 70.4006C109.133 68.2229 112.992 65.1884 116.137 61.3685C119.281 57.62 121.711 53.2646 123.391 48.338L123.534 47.9096C125.07 43.2328 125.821 38.1634 125.821 32.8441C125.892 23.0266 123.212 15.0655 117.923 9.21063ZM104.523 35.9857C104.523 39.4129 103.951 42.0547 102.772 43.9111L102.7 44.0182C101.593 45.7675 100.27 46.9813 98.6267 47.7668L98.5909 47.8025C96.697 48.695 94.8388 49.1591 92.9449 49.1591C91.3011 49.1591 89.8003 48.8021 88.3709 48.1238C87.2274 47.5526 86.3341 46.6958 85.5479 45.4106C84.7617 44.054 84.3329 42.1261 84.3329 39.6628C84.3329 36.7354 84.8332 34.0936 85.8695 31.5589L85.9052 31.4875C86.7629 29.3455 87.6562 27.4177 88.5496 25.7755C89.1213 25.5613 89.7288 25.3471 90.372 25.1686L90.515 25.1329C91.5513 24.7759 92.802 24.5974 94.2314 24.5974C96.0895 24.5974 97.7691 24.9901 99.4486 25.7755L99.6272 25.8469C100.985 26.4538 102.093 27.4891 103.093 29.0242L103.129 29.0599C103.737 30.0952 104.523 32.1301 104.523 35.9857ZM62.392 48.6593C61.7845 48.5165 61.177 48.4451 60.5338 48.4451H60.2837C59.4261 48.4451 58.6042 48.5522 57.7108 48.8021C57.3535 48.8735 56.9247 48.9449 56.4958 49.052H56.4601C56.4244 49.052 56.3886 49.052 56.3529 49.052C56.1028 49.052 55.8169 49.052 55.2809 48.5522C54.1731 47.4812 53.1011 45.9461 52.1005 43.9826L51.8504 43.5184C50.8141 41.4835 49.8135 39.163 48.8487 36.5926C50.7783 32.0944 52.6723 28.5958 54.3875 26.4538L54.459 26.3824C55.3523 25.24 55.9241 24.7759 56.21 24.6331C56.2814 24.6688 56.3886 24.7045 56.4958 24.7402C58.6399 25.8112 60.6053 26.2039 62.535 26.0611C62.8208 27.3106 63.2854 28.453 63.9286 29.4526C64.1787 29.8096 64.4289 30.1666 64.679 30.5236C64.3574 31.4875 64.0715 32.4157 63.8214 33.3439L63.7857 33.4867C62.8208 37.4494 62.3205 41.3407 62.3205 45.0892C62.2491 46.2673 62.2848 47.4812 62.392 48.6593Z" fill="#0A0B39"/>
<path d="M102.558 18.3499C99.9491 17.1003 97.1261 16.4577 94.1959 16.4577C91.9803 16.4577 89.9792 16.7433 88.1925 17.3503C86.5487 17.8501 85.0479 18.4213 83.7257 19.0639L83.547 19.171L83.4398 19.3495C81.939 21.7057 80.5096 24.5974 79.1517 27.9532C77.7938 31.3447 77.0791 34.9861 77.0791 38.806C77.0791 42.6259 77.8295 45.8032 79.3304 48.3022C80.8312 50.7299 82.7609 52.5863 85.1551 53.7644C87.585 54.9425 90.2294 55.5494 92.9809 55.5494C95.9469 55.5494 98.9128 54.8711 101.736 53.5145L101.807 53.4788C104.702 52.1222 107.132 49.9088 108.954 46.9456L109.133 46.6601C110.92 43.6612 111.813 39.7699 111.813 35.0932C111.813 30.5593 110.92 26.9179 109.204 24.2404C107.453 21.5272 105.238 19.528 102.558 18.3499ZM107.846 45.9103L107.668 46.1959C105.988 48.9092 103.773 50.9441 101.128 52.1579H101.093C98.4483 53.4431 95.6967 54.0857 92.9452 54.0857C90.4438 54.0857 88.0138 53.5502 85.7983 52.4435C83.69 51.3725 81.9032 49.7303 80.5811 47.5526C79.2232 45.2677 78.5442 42.3403 78.5442 38.806C78.5442 35.2003 79.1874 31.7374 80.4739 28.5244V28.4887C81.7246 25.3114 83.0825 22.5625 84.5118 20.3134C85.7268 19.7422 87.0847 19.2424 88.6213 18.7783C90.2651 18.2428 92.1233 17.9571 94.1601 17.9571C96.8402 17.9571 99.4488 18.5284 101.879 19.7065L101.914 19.7422C104.309 20.8132 106.346 22.5982 107.918 25.0972C109.49 27.5248 110.276 30.9163 110.276 35.1646C110.312 39.52 109.49 43.1614 107.846 45.9103Z" fill="white"/>
<path d="M113.635 12.2451C109.347 7.38992 102.915 4.92661 94.4816 4.92661C91.0511 4.92661 87.9065 5.31931 85.1192 6.06902L84.8333 6.14041C81.9745 6.96152 79.4374 7.99682 77.3291 9.24632C75.2207 10.4244 73.434 11.6382 72.0404 12.8163L72.0047 12.852C71.2185 13.6017 70.3609 14.5656 69.539 15.7437L69.3603 15.958C68.3598 17.386 67.8237 19.2781 67.8237 21.5629C67.8237 23.2408 68.1096 24.4903 68.7171 25.4542C69.396 26.5252 70.5038 27.1321 71.826 27.1678C70.754 29.4169 69.8963 31.666 69.3246 33.9508C68.467 37.4494 68.0381 40.9123 68.0381 44.161C68.0381 51.5867 70.0393 57.3344 73.97 61.2614C77.9366 65.117 83.261 67.0448 89.8004 67.0448C94.3029 67.0448 98.4838 66.1166 102.2 64.2959C105.917 62.4752 109.097 59.9405 111.741 56.7632C114.421 53.5859 116.494 49.8374 117.923 45.6247L118.066 45.2321C119.388 41.1265 120.067 36.6997 120.067 31.9873C120.103 23.6335 117.923 16.9933 113.635 12.2451ZM116.673 44.7679L116.53 45.1606C115.172 49.1948 113.171 52.8005 110.598 55.835C108.096 58.8695 105.059 61.2614 101.521 63.0107C98.0193 64.7243 94.0528 65.6168 89.7647 65.6168C83.6183 65.6168 78.6512 63.7961 74.9706 60.2261C71.3257 56.5847 69.5033 51.194 69.5033 44.161C69.5033 41.0194 69.9321 37.6993 70.754 34.3078C71.4329 31.7374 72.4692 29.1313 73.7914 26.5966L74.6133 25.0258L72.9338 25.5613C72.6121 25.6684 72.2548 25.7041 71.9332 25.7041C71.0756 25.7041 70.3966 25.3471 69.9678 24.6688C69.539 23.9905 69.3246 22.9552 69.3246 21.5629C69.3246 19.5994 69.7534 17.9929 70.5753 16.8148L70.7182 16.6006C71.5044 15.4938 72.2548 14.637 72.9695 13.9587C74.2917 12.8163 75.9712 11.6739 78.008 10.5315C80.0449 9.35343 82.4391 8.35382 85.1906 7.56842L85.4408 7.49702C88.1209 6.78302 91.1226 6.39031 94.4101 6.39031C102.379 6.39031 108.454 8.67512 112.456 13.209C116.494 17.6716 118.567 23.9905 118.567 31.9516C118.638 36.5212 117.959 40.8409 116.673 44.7679Z" fill="white"/>
<path d="M65.5369 6.81872C64.3219 5.81912 62.5709 5.31931 60.3554 5.31931C56.9963 5.31931 53.816 6.31892 50.8858 8.28242L50.5999 8.46092C47.8126 10.4244 45.2397 13.0662 42.9885 16.3506L42.7741 16.672L42.7383 16.7076C41.2375 18.9568 39.8438 21.4201 38.5931 24.0619C36.6992 18.1714 34.6623 13.8516 32.3039 10.9242C29.3379 7.21142 25.4786 5.35502 20.8331 5.35502C17.9744 5.35502 15.5802 5.99762 13.722 7.31852L13.6863 7.35422C11.7566 8.74653 10.7561 10.6743 10.7561 12.852C10.7561 14.3157 11.1849 15.6366 12.0425 16.7791L12.0782 16.8148C13.4361 18.5284 14.7226 18.6355 15.5445 18.4213C16.0805 18.3142 16.6165 18.2428 17.081 18.1714L17.2597 18.1357C17.6885 18.0286 18.0816 17.9929 18.4747 17.9929C21.2977 17.9929 23.6562 19.5637 25.6573 22.8481C27.8014 26.2753 29.7667 30.8806 31.5535 36.5212C29.3379 41.9833 27.2653 46.3388 25.3357 49.4804L25.157 49.8017C23.3703 52.6577 21.5836 54.1214 19.8683 54.1214C19.3323 54.1214 18.832 54.0143 18.3317 53.7644C17.9029 53.5145 17.6528 53.1932 17.4741 52.8005L17.2597 52.4078C16.9024 51.8366 16.545 51.3725 16.1162 51.0155C15.5445 50.48 14.7583 50.1944 13.8649 50.1944C12.1854 50.1944 10.6488 51.0155 9.25521 52.6577L9.14801 52.8005C7.86157 54.3713 7.18262 56.2991 7.18262 58.4768C7.18262 61.0115 8.11171 63.0821 9.93416 64.6172L9.96989 64.6529C11.7923 66.1166 14.0794 66.8663 16.7237 66.8663C21.3692 66.8663 25.3357 64.8314 28.5518 60.833C31.0532 57.7628 33.4116 53.5859 35.6629 48.4094C36.6992 51.5867 37.7712 54.2999 38.8075 56.4776C40.2727 59.5835 42.1308 62.1182 44.3106 63.9746L44.3464 64.0103C46.7048 65.9024 49.6351 66.8306 53.0656 66.8306C55.2454 66.8306 57.175 66.3308 58.8903 65.4026L59.2119 65.2241C60.677 64.3316 61.7847 63.2606 62.5352 61.9754C63.3928 60.5474 63.8216 59.0837 63.8216 57.6557C63.8216 56.4062 63.5715 55.4423 63.0712 54.7283C62.4637 53.8715 61.5346 53.4074 60.3911 53.4074C60.0338 53.4074 59.6049 53.4788 59.1404 53.6216C58.7831 53.693 58.3185 53.7644 57.8182 53.8715H57.7825C57.4252 53.9786 56.9606 54.0143 56.4246 54.0143C54.5307 54.0143 52.8512 53.336 51.3503 51.908C49.778 50.4086 48.3129 48.338 46.9907 45.7676L46.7048 45.2321C45.3112 42.4474 43.9533 39.1987 42.6669 35.593C45.0968 29.4883 47.5267 24.9187 49.8495 21.9913L49.8852 21.9556C51.9578 19.2424 54.1019 17.8858 56.1745 17.8858C57.0321 17.8858 57.9969 18.1357 59.0332 18.6355C60.0695 19.171 60.9629 19.4209 61.749 19.4209C63.2856 19.4209 64.6792 18.5998 65.8227 16.9219L65.8942 16.8148C67.0377 15.2439 67.6095 13.4589 67.6095 11.4954C67.5023 9.42483 66.859 7.88973 65.5369 6.81872ZM64.6078 15.9223L64.5363 16.0651C63.6787 17.2789 62.6781 17.9215 61.6418 17.9215C61.1058 17.9215 60.4268 17.7073 59.5692 17.2789C58.3185 16.672 57.1393 16.3863 56.0672 16.3863C53.4944 16.3863 50.993 17.9572 48.6345 21.0274C46.1688 24.1333 43.6317 28.9528 41.0945 35.3074L40.9873 35.5573L41.0945 35.8072C42.4524 39.5557 43.8461 42.9472 45.3112 45.8746L45.5971 46.4102C47.0265 49.1234 48.563 51.3368 50.2425 52.9433C52.0293 54.6212 54.0661 55.4423 56.3531 55.4423C56.9963 55.4423 57.5681 55.3709 58.0684 55.2638C58.5687 55.1567 58.9975 55.0496 59.3548 55.0139L59.462 54.9782C59.7836 54.8711 60.0695 54.7997 60.3196 54.7997C60.9629 54.7997 61.4631 55.0496 61.7847 55.478C62.1064 55.9421 62.285 56.6561 62.285 57.5486C62.285 58.7267 61.9277 59.9405 61.213 61.1186C60.6055 62.1896 59.6407 63.0821 58.4257 63.8318L58.1756 63.9746C56.6747 64.7957 54.9595 65.2241 53.0656 65.2241C49.9567 65.2241 47.3481 64.3673 45.2397 62.7251C43.2029 61.0115 41.4876 58.6553 40.1297 55.7279C38.9147 53.1932 37.664 49.8731 36.4491 45.9461L35.8416 43.9825L35.0554 45.9104C32.6612 51.8009 30.0884 56.4776 27.4083 59.7977C24.4781 63.4391 20.9046 65.2598 16.7237 65.2598C14.4367 65.2598 12.4713 64.6529 10.899 63.4034L10.8633 63.3677C9.36241 62.1182 8.61199 60.4403 8.61199 58.334C8.61199 56.5133 9.14801 54.9068 10.22 53.5859L10.3272 53.4431C11.435 52.1579 12.6142 51.5153 13.8292 51.5153C14.3652 51.5153 14.7583 51.6581 15.0799 51.9437L15.1156 51.9794C15.4373 52.2293 15.7231 52.5863 15.9733 53.0147L16.0805 53.2289C16.3664 53.9429 16.8666 54.5141 17.5813 54.9068L17.6171 54.9425C18.3317 55.2995 19.0822 55.478 19.8326 55.478C22.0839 55.478 24.2994 53.8001 26.372 50.4443L26.5506 50.123C28.5518 46.8743 30.7316 42.3403 32.9828 36.6997L33.09 36.4498L33.0186 36.1999C31.1961 30.3094 29.1235 25.4899 26.908 21.9199C24.6567 18.2428 21.798 16.3506 18.4747 16.3506C18.0101 16.3506 17.4741 16.422 16.9381 16.5291C16.4021 16.6005 15.8303 16.672 15.2586 16.7791H15.2229C14.6511 16.9219 13.9721 16.5649 13.2932 15.708C12.65 14.8155 12.2926 13.7802 12.2926 12.6735C12.2926 10.9599 13.0788 9.49623 14.6154 8.35382C16.2234 7.21142 18.3317 6.64022 20.9046 6.64022C25.0855 6.64022 28.5518 8.31812 31.2318 11.6739C33.6618 14.7084 35.8773 19.5637 37.8427 26.1682L38.4145 28.096L39.2363 26.2396C40.6657 22.9909 42.2738 19.9921 44.0962 17.3146L44.3106 16.9933C46.4547 13.8516 48.8846 11.3526 51.5647 9.49623L51.8149 9.31773C54.4949 7.53272 57.3894 6.64022 60.4268 6.64022C62.3208 6.64022 63.7144 7.03292 64.6792 7.81832C65.6083 8.60372 66.1086 9.78183 66.1086 11.3169C66.0371 13.1019 65.5369 14.6013 64.6078 15.9223Z" fill="white"/>
<path fill-rule="evenodd" clip-rule="evenodd" d="M71.7546 61.6898C73.0053 61.6898 74.3632 61.8326 75.6854 62.2253V61.8683H115.172C117.459 61.8683 120.389 62.3681 122.891 64.403L122.926 64.4387C125.571 66.6164 126.678 69.6509 126.678 72.5783C126.678 73.4351 126.571 74.3633 126.357 75.2916C126.786 76.4697 127 77.6835 127 78.933C127 81.8961 125.892 84.8949 123.355 87.1083C120.782 89.3217 117.745 89.8572 115.315 89.8572H103.773C103.129 89.9643 102.45 90 101.807 90C101.164 90 100.485 89.9643 99.8419 89.8572H75.7212V89.6073C74.5777 89.8929 73.4699 90 72.3979 90C71.5402 90 70.6469 89.9286 69.7535 89.7501V89.8572H38.5931C35.0912 90 32.3754 89.8572 28.8376 89.8572H14.3652C13.6863 89.9643 13.043 90 12.3998 90C10.6488 90 8.79066 89.7144 7.00394 88.9647L6.9682 88.929L6.93247 88.8933C5.11001 88.1079 3.50197 86.8584 2.25127 85.1805L2.21553 85.1448L2.1798 85.1091C0.96483 83.4312 0.285874 81.5391 0.0714677 79.647L0 79.2543V71.6858V71.4359C0.285875 68.7584 1.53658 66.188 3.89505 64.3316C6.36072 62.3681 9.18373 61.7255 11.7566 61.7255C12.507 61.7255 13.3289 61.7969 14.1508 61.904H23.7276C25.6215 61.904 27.8371 62.2253 29.9097 63.332C31.9823 62.2253 34.2693 61.7255 36.5563 61.7255C37.3424 61.7255 38.1286 61.7969 38.9147 61.904H69.3604C70.1823 61.7255 70.9685 61.6898 71.7546 61.6898Z" fill="#0A0B39"/>
<path d="M16.2947 76.791C16.6878 77.3265 16.8665 78.0048 16.8665 78.8973C16.8665 79.5756 16.6878 80.2182 16.3662 80.7894C16.0088 81.3606 15.5085 81.8247 14.8296 82.1817C14.1506 82.5387 13.3288 82.6815 12.3639 82.6815C11.3991 82.6815 10.5772 82.5387 9.82678 82.2174C9.07636 81.8961 8.46887 81.432 8.00433 80.8251C7.57551 80.2182 7.28964 79.5042 7.25391 78.6831H10.1127C10.1841 79.2186 10.3985 79.6827 10.7559 80.0397C11.149 80.3967 11.6492 80.5752 12.2567 80.5752C12.8285 80.5752 13.2215 80.4324 13.5432 80.1468C13.8648 79.8255 14.0077 79.4685 14.0077 79.0044C14.0077 78.5759 13.9005 78.2547 13.6504 77.9691C13.4002 77.6834 13.1143 77.4693 12.7213 77.2908C12.3639 77.1122 11.8636 76.9337 11.1847 76.7195C10.3628 76.4339 9.64811 76.184 9.14783 75.8984C8.61181 75.6128 8.14727 75.2201 7.78992 74.6846C7.43258 74.1491 7.25391 73.4708 7.25391 72.6497C7.25391 71.5073 7.68272 70.5791 8.50461 69.9365C9.3265 69.2582 10.4343 68.9369 11.8279 68.9369C13.2573 68.9369 14.365 69.2939 15.2227 69.9722C16.0803 70.6505 16.5448 71.5787 16.6521 72.7211H13.7576C13.6861 72.257 13.4717 71.8643 13.1501 71.543C12.8285 71.2217 12.3639 71.0789 11.7922 71.0789C11.2919 71.0789 10.8988 71.2217 10.5772 71.4716C10.2556 71.7215 10.1127 72.1142 10.1127 72.5783C10.1127 72.971 10.2199 73.2923 10.47 73.5779C10.7201 73.8278 11.006 74.042 11.3634 74.2205C11.7207 74.399 12.221 74.5775 12.8642 74.756C13.7218 75.0773 14.4365 75.3629 14.9725 75.6128C15.4728 75.8627 15.9374 76.2554 16.2947 76.791ZM27.3009 70.2578C28.1228 71.0075 28.5159 72.0428 28.5159 73.3637C28.5159 74.6489 28.0871 75.6485 27.2652 76.4339C26.4433 77.1837 25.264 77.5763 23.7275 77.5763H21.5119V82.5387H18.8318V69.1154H23.7275C25.3355 69.1154 26.5147 69.5081 27.3009 70.2578ZM25.8 73.3637C25.8 72.6854 25.6214 72.1856 25.264 71.8286C24.9067 71.4716 24.2992 71.2931 23.4416 71.2931H21.5119V75.3986H23.4416C25.0139 75.4343 25.8 74.7203 25.8 73.3637ZM42.3808 72.257C42.9883 73.2923 43.2742 74.4704 43.2742 75.7913C43.2742 77.1122 42.9883 78.2903 42.3808 79.3614C41.8091 80.3967 40.9872 81.2178 39.9509 81.8247C38.9503 82.3959 37.8068 82.6815 36.5561 82.6815C35.3054 82.6815 34.1619 82.3959 33.1256 81.8247C32.125 81.2535 31.3031 80.4324 30.6957 79.3614C30.1239 78.326 29.838 77.1122 29.838 75.7913C29.838 74.4704 30.1239 73.2923 30.6957 72.257C31.3031 71.2217 32.0893 70.4006 33.1256 69.7937C34.1619 69.2225 35.3054 68.9369 36.5561 68.9369C37.8068 68.9369 38.9503 69.2225 39.9509 69.7937C40.9872 70.4006 41.8091 71.2217 42.3808 72.257ZM40.5226 75.7913C40.5226 74.8988 40.3439 74.1491 40.0223 73.4708C39.7007 72.7925 39.2362 72.2927 38.6287 71.9357C38.0212 71.5787 37.3423 71.4002 36.5561 71.4002C35.7699 71.4002 35.091 71.5787 34.4835 71.9357C33.876 72.2927 33.4115 72.7925 33.0899 73.4708C32.7683 74.1134 32.5896 74.8988 32.5896 75.7913C32.5896 76.6838 32.7683 77.4692 33.0899 78.1118C33.4472 78.7545 33.9118 79.29 34.4835 79.647C35.091 80.004 35.7699 80.1825 36.5561 80.1825C37.3423 80.1825 38.0212 80.004 38.6287 79.647C39.2362 79.29 39.7007 78.7902 40.0223 78.1118C40.3797 77.4692 40.5226 76.6838 40.5226 75.7913ZM51.9219 77.1837L55.2809 82.5387H52.315L49.1703 77.3265H47.9911V82.5387H45.311V69.1154H50.421C51.9934 69.1154 53.1726 69.5081 53.9587 70.2578C54.7806 71.0075 55.2094 72.0071 55.2094 73.2566C55.2094 74.2562 54.9236 75.113 54.3518 75.7913C53.7801 76.5053 52.9582 76.9695 51.9219 77.1837ZM52.4936 73.4351C52.4936 72.7925 52.315 72.2927 51.9219 71.9357C51.5645 71.5787 50.9928 71.4002 50.2066 71.4002H47.9911V75.47H50.2066C51.7075 75.47 52.4936 74.7917 52.4936 73.4351ZM56.0671 71.2574H59.7477V82.5387H62.4278V71.2574H66.1442V69.1154H56.0671V71.2574ZM74.8634 75.5771C74.3273 75.3272 73.6484 75.0416 72.755 74.7203C72.1475 74.5061 71.6473 74.3276 71.2899 74.1848C70.9326 74.0063 70.6467 73.8278 70.3966 73.5422C70.1822 73.2923 70.0392 72.9353 70.0392 72.5426C70.0392 72.0428 70.1821 71.6858 70.5038 71.4359C70.8254 71.186 71.2185 71.0432 71.7187 71.0432C72.2905 71.0432 72.755 71.186 73.0766 71.5073C73.3982 71.8286 73.6127 72.2213 73.6841 72.6854H76.5786C76.4714 71.543 75.9711 70.6505 75.1492 69.9365C74.3273 69.2582 73.1838 68.9012 71.7545 68.9012C70.3966 68.9012 69.2888 69.2225 68.4312 69.9008C67.6093 70.5434 67.1805 71.4716 67.1805 72.614C67.1805 73.4351 67.3591 74.1134 67.7165 74.6489C68.1096 75.1844 68.5384 75.5771 69.0744 75.8627C69.6104 76.1126 70.2894 76.3982 71.1112 76.6838C71.7545 76.898 72.2547 77.0765 72.6478 77.255C73.0409 77.4335 73.3268 77.6477 73.5769 77.9333C73.8271 78.1832 73.9343 78.5403 73.9343 78.9687C73.9343 79.4328 73.7913 79.8255 73.4697 80.1111C73.1838 80.3967 72.755 80.5395 72.1833 80.5395C71.5758 80.5395 71.0755 80.361 70.6824 80.004C70.3251 79.647 70.1107 79.1829 70.0392 78.6474H67.1805C67.2519 79.4685 67.5021 80.1825 67.9309 80.7894C68.3954 81.3963 69.0029 81.8604 69.7533 82.1817C70.5038 82.503 71.3614 82.6458 72.2905 82.6458C73.2553 82.6458 74.0772 82.4673 74.7562 82.146C75.4351 81.789 75.9354 81.3249 76.2927 80.7537C76.6501 80.1825 76.793 79.5399 76.793 78.8616C76.793 78.0048 76.6143 77.2908 76.2213 76.7552C75.8997 76.2554 75.4351 75.8627 74.8634 75.5771ZM91.3726 74.5775H85.6194V69.1511H82.9393V82.5744H85.6194V76.7552H91.3726V82.5744H94.0884V69.1511H91.3726V74.5775ZM104.487 77.0052C104.487 78.0405 104.237 78.8616 103.772 79.3971C103.308 79.9326 102.665 80.1825 101.807 80.1825C100.949 80.1825 100.271 79.9326 99.806 79.3971C99.3414 78.8616 99.127 78.0762 99.127 77.0052V69.1511H96.4827V77.0052C96.4827 78.8616 96.9472 80.2896 97.912 81.2535C98.8769 82.2174 100.163 82.6815 101.771 82.6815C102.808 82.6815 103.737 82.4673 104.559 82.0389C105.381 81.6105 106.024 81.0036 106.488 80.1468C106.953 79.29 107.203 78.219 107.203 77.0052V69.1511H104.559V77.0052H104.487ZM119.674 78.8973C119.674 80.0397 119.281 80.9322 118.531 81.5748C117.78 82.2174 116.708 82.5387 115.243 82.5387H109.49V69.1154H115.136C116.494 69.1154 117.53 69.401 118.245 70.0079C118.995 70.6148 119.353 71.4359 119.353 72.5069C119.353 73.328 119.138 74.042 118.674 74.5418C118.245 75.0773 117.673 75.4343 116.958 75.5771C117.78 75.7556 118.424 76.1126 118.888 76.7195C119.424 77.3978 119.674 78.0762 119.674 78.8973ZM112.17 74.756H114.6C115.279 74.756 115.779 74.6132 116.137 74.3276C116.494 74.0063 116.673 73.5779 116.673 73.0424C116.673 72.5069 116.494 72.0428 116.172 71.7572C115.815 71.4359 115.315 71.2931 114.6 71.2931H112.206V74.756H112.17ZM116.923 78.5403C116.923 77.9334 116.744 77.505 116.351 77.1837C115.958 76.8624 115.422 76.6838 114.707 76.6838H112.17V80.361H114.707C115.422 80.361 115.958 80.2182 116.351 79.8969C116.744 79.5756 116.923 79.1115 116.923 78.5403Z" fill="white"/>
<path d="M94.3386 6.99722C102.164 6.99722 108.168 9.21063 112.242 13.8159L112.42 14.0301C116.387 18.5284 118.281 24.6688 118.281 32.3086C118.281 36.7711 117.637 40.9123 116.387 44.8036L116.279 45.1606C114.922 49.1234 112.992 52.622 110.455 55.6208C107.989 58.6196 104.987 61.0115 101.485 62.6894C97.9835 64.403 94.0884 65.2598 89.8718 65.2598C83.7969 65.2598 78.8299 63.4748 75.0778 59.8691C71.3614 56.1563 69.5747 50.7656 69.5747 43.9111C69.5747 40.8052 69.9677 37.5922 70.7896 34.2721L70.8611 33.9508C71.4686 31.7017 72.3262 29.4883 73.4697 27.2749C73.2553 27.3106 73.0766 27.3106 72.8622 27.3106C71.7187 27.3106 70.7896 26.8465 70.1821 25.8826C69.6104 24.9901 69.396 23.7763 69.396 22.4197C69.396 20.4205 69.8248 18.6712 70.7539 17.3146L71.0755 16.8861C71.7902 15.8865 72.5049 15.0654 73.2196 14.4228C74.5417 13.2804 76.1855 12.1737 78.1509 11.067C80.1878 9.88893 82.5462 8.92503 85.2263 8.13963L85.7266 7.99682C88.4067 7.31852 91.2297 6.99722 94.3386 6.99722ZM94.0884 18.5284C92.0873 18.5284 90.2649 18.814 88.6926 19.3138H88.6568C87.156 19.7779 85.7981 20.2777 84.6188 20.8489C83.2252 23.0266 81.9388 25.6684 80.6881 28.81C79.4373 31.9159 78.7941 35.236 78.7941 38.7703C78.7941 42.2689 79.4731 45.0892 80.7953 47.3027L80.9382 47.5169C82.2604 49.5875 83.9399 51.1226 85.9767 52.1579C88.1565 53.2289 90.4793 53.7644 92.9807 53.7644C95.6608 53.7644 98.3051 53.1575 100.914 51.908C103.522 50.6942 105.666 48.7664 107.31 46.0532C108.99 43.3399 109.883 39.8056 109.883 35.3074C109.883 31.0948 109.061 27.8818 107.56 25.5256C105.988 23.0623 104.023 21.313 101.664 20.2777C99.2342 19.0996 96.7328 18.5284 94.0884 18.5284Z" fill="#F74824"/>
<path d="M89.9075 66.2951C83.5468 66.2951 78.3296 64.3673 74.4345 60.6188C70.5752 56.7632 68.6098 51.1583 68.6098 43.9111C68.6098 40.7695 69.0386 37.4494 69.8605 34.0579L69.9677 33.7009C70.468 31.8802 71.147 30.0238 71.9689 28.2031C70.8968 27.9889 69.9677 27.3463 69.3602 26.3824C68.7528 25.3828 68.4312 24.0976 68.4312 22.384C68.4312 20.0992 68.9672 18.2071 69.9677 16.7076L70.2893 16.2793C71.0755 15.2083 71.8259 14.3514 72.5763 13.6731L72.6121 13.6374C73.97 12.4593 75.6852 11.3169 77.7221 10.1745C79.759 8.96073 82.2246 7.96113 85.0119 7.17572L85.5479 7.03292C88.1923 6.35462 91.1582 5.99762 94.3743 5.99762C102.557 5.99762 108.847 8.38953 113.028 13.1376L113.206 13.3518C117.28 17.9572 119.317 24.3475 119.317 32.3086C119.317 36.8425 118.674 41.1622 117.387 45.0892L117.244 45.4819C115.851 49.5518 113.85 53.1932 111.241 56.2634C108.704 59.3693 105.559 61.8326 101.95 63.6176C98.3766 65.4026 94.3028 66.2951 89.9075 66.2951ZM75.2922 26.0254L74.4345 27.739C73.3625 29.881 72.5049 32.0587 71.8974 34.2364L71.8259 34.5577C71.0398 37.7707 70.6467 40.948 70.6467 43.9468C70.6467 50.6228 72.3977 55.7636 75.8639 59.2265C79.3659 62.618 84.1186 64.3316 89.9433 64.3316C94.017 64.3316 97.8048 63.5105 101.128 61.8683C104.487 60.2261 107.382 57.9413 109.74 55.0496C112.17 52.1579 114.064 48.7307 115.386 44.9107L115.493 44.5537C116.708 40.8052 117.352 36.6997 117.352 32.38C117.352 24.9187 115.458 18.9925 111.741 14.7441L111.563 14.53C107.775 10.2459 101.986 8.06823 94.4101 8.06823C91.3726 8.06823 88.5853 8.38953 86.1197 9.03213L85.6194 9.17493C83.0108 9.92463 80.7238 10.8528 78.7941 11.9952C76.8645 13.0662 75.2564 14.1729 74.0057 15.244C73.3625 15.8509 72.6835 16.6006 72.0046 17.5645L71.7187 17.9929C70.9326 19.0996 70.5395 20.6347 70.5395 22.4911C70.5395 23.7763 70.7539 24.7759 71.147 25.4185C71.54 26.0611 72.1833 26.3824 73.0051 26.3824C73.1481 26.3824 73.3268 26.3824 73.4697 26.3467L75.2922 26.0254ZM92.9092 54.764C90.3006 54.764 87.7992 54.1928 85.4765 53.0504C83.2609 51.9437 81.4385 50.2658 80.0448 48.0524L79.9019 47.8382C78.4725 45.4462 77.7578 42.4117 77.7578 38.806C77.7578 35.1646 78.401 31.7017 79.7232 28.4887V28.453C80.9739 25.3114 82.3318 22.5625 83.7255 20.3491L83.8684 20.0992L84.1185 19.9921C85.3692 19.4209 86.7629 18.8854 88.2995 18.4213C90.0147 17.8501 91.9086 17.5645 94.017 17.5645C96.8043 17.5645 99.4486 18.1714 101.95 19.3495C104.487 20.4919 106.631 22.384 108.275 24.9901V25.0258C109.919 27.5962 110.741 31.0591 110.741 35.3431C110.741 39.9127 109.812 43.6969 108.025 46.5886L107.989 46.6244C106.238 49.4447 103.951 51.5153 101.164 52.8362C98.5552 54.0857 95.7322 54.764 92.9092 54.764ZM81.5814 29.2384C80.3664 32.2372 79.759 35.4502 79.759 38.7703C79.759 42.019 80.3664 44.7322 81.6171 46.8029L81.7243 46.9814C82.9393 48.9092 84.4402 50.3015 86.3341 51.2297C88.3709 52.2293 90.5865 52.7291 92.8735 52.7291C95.4106 52.7291 97.9478 52.1222 100.378 50.9441C102.843 49.8017 104.809 47.9809 106.381 45.4462C107.989 42.8758 108.811 39.4486 108.811 35.236C108.811 31.309 108.096 28.2031 106.667 25.9897L106.631 25.954C105.166 23.6692 103.415 22.0627 101.2 21.0988L101.164 21.0631C98.9483 19.9921 96.5541 19.4566 94.0527 19.4566C92.1588 19.4566 90.4435 19.7065 88.9427 20.2063H88.9069C87.549 20.6347 86.3341 21.0988 85.2263 21.5629C83.9399 23.6335 82.6892 26.1682 81.5099 29.0956L81.5814 29.2384Z" fill="#0A0B39"/>
<path d="M59.3191 7.35422C61.213 7.35422 62.8211 7.74692 64.0003 8.67512C65.1796 9.63902 65.7156 11.067 65.7156 12.7806C65.7156 14.5656 65.2153 16.2078 64.179 17.6001C63.2499 18.9924 62.0349 19.9207 60.5341 19.9207C59.7837 19.9207 58.9975 19.6351 58.1399 19.2067C57.0321 18.6711 56.0673 18.457 55.2454 18.457C53.2443 18.457 51.1359 19.6708 48.9561 22.4911C46.7049 25.3471 44.3821 29.7382 41.9879 35.7001C43.2386 39.2344 44.5608 42.3403 45.9187 45.0535L46.1689 45.5533C47.491 48.0881 48.8847 50.0516 50.4213 51.5153C51.9578 52.9433 53.6373 53.6216 55.5313 53.6216C56.103 53.6216 56.5676 53.5859 56.9249 53.4788C57.4252 53.3717 57.8183 53.3003 58.1756 53.2289C58.533 53.1218 58.926 53.0147 59.2834 53.0147C60.1767 53.0147 60.9629 53.336 61.4989 54.0857C61.9992 54.764 62.1421 55.6922 62.1421 56.6561C62.1421 58.0127 61.7491 59.2979 60.9986 60.5831C60.2839 61.8326 59.1404 62.8679 57.7111 63.689C56.1388 64.5815 54.3163 65.0099 52.3509 65.0099C49.2063 65.0099 46.4905 64.1531 44.3107 62.4038C42.2381 60.6545 40.5586 58.2983 39.2007 55.4066L38.9505 54.8354C37.9142 52.622 36.9137 49.8731 35.8774 46.6957C33.6618 52.0508 31.2676 56.2991 28.7305 59.4407C25.7645 63.1178 22.1196 65.0099 17.7958 65.0099C15.4016 65.0099 13.2932 64.3673 11.6137 63.0107C9.9342 61.6184 9.1123 59.7263 9.1123 57.4772C9.1123 55.5137 9.68405 53.7644 10.8633 52.3364L10.9705 52.1936C12.1497 50.837 13.4719 50.0159 15.0442 50.0159C15.7232 50.0159 16.4021 50.1944 16.9024 50.6942C17.2955 51.0155 17.6171 51.4439 17.9387 51.9437L18.0816 52.1579L18.1174 52.1936L18.1531 52.2293C18.3318 52.6934 18.6534 53.0504 19.1537 53.3717C19.6897 53.6216 20.2614 53.7644 20.7974 53.7644C22.4412 53.7644 24.2279 52.5506 26.1933 49.4447L26.372 49.1591C28.2302 46.1245 30.2313 41.9476 32.3754 36.6283C30.6601 31.0948 28.7662 26.668 26.6936 23.3836C24.6568 20.0635 22.2626 18.5641 19.511 18.5641C19.1537 18.5641 18.7249 18.5998 18.2603 18.7069H18.2246H18.1888C17.7243 18.7426 17.224 18.8497 16.688 18.9568C15.5088 19.2781 14.5082 18.4569 13.8292 17.6001C13.0788 16.5648 12.6857 15.3867 12.6857 14.1015C12.6857 12.1023 13.6148 10.4601 15.3301 9.21062C17.0811 7.99682 19.2966 7.42562 21.8695 7.42562C26.1576 7.42562 29.731 9.17492 32.4826 12.5664C34.8411 15.4938 36.9137 19.9921 38.7361 25.954C40.0225 23.098 41.4877 20.4562 43.0957 18.0286L43.3101 17.743C45.4184 14.6727 47.8126 12.2094 50.457 10.353L50.7071 10.1745C53.2443 8.24672 56.1745 7.35422 59.3191 7.35422Z" fill="#C6EB07"/>
<path d="M52.3153 66.0452C48.9206 66.0452 45.9904 65.0813 43.6319 63.2249L43.5961 63.1892C41.595 61.7255 39.5582 58.9409 38.2003 55.8707L37.9501 55.2995C37.1997 53.6573 36.4135 51.6938 35.6631 49.5161C33.6977 53.8715 31.5894 57.4058 29.4453 60.0833C26.265 64.0103 22.3342 66.0095 17.7245 66.0095C15.0444 66.0095 12.7574 65.2598 10.9349 63.7604L10.8992 63.7247C9.00526 62.1539 8.07617 60.0476 8.07617 57.4415C8.07617 55.2281 8.75512 53.2646 10.0773 51.6581L10.1845 51.5153C11.6139 49.8373 13.2577 48.9806 15.0086 48.9806C16.0092 48.9806 16.8668 49.3018 17.51 49.9087C17.9389 50.3014 18.3677 50.8013 18.725 51.3725L18.9752 51.8009C19.0824 52.0865 19.261 52.265 19.5469 52.4435C19.94 52.622 20.3331 52.7291 20.7261 52.7291C22.1198 52.7291 23.6921 51.4082 25.2644 48.8734L25.4431 48.5879C27.2298 45.6604 29.1952 41.6263 31.232 36.5212C29.5883 31.2733 27.7301 26.9893 25.7647 23.8477C23.978 20.9203 21.9054 19.4923 19.404 19.4923C19.0824 19.4923 18.7607 19.528 18.3677 19.5994L18.1533 19.6351C17.7245 19.6708 17.2599 19.7422 16.7596 19.8493C15.7948 20.0992 14.3654 19.992 12.9003 18.1356L12.8646 18.1C11.9712 16.8861 11.5424 15.5295 11.5424 13.9944C11.5424 11.7096 12.5787 9.74612 14.5798 8.28241L14.6156 8.24672C16.4737 6.92581 18.868 6.28321 21.7267 6.28321C26.3364 6.28321 30.16 8.13962 33.0902 11.8167C35.1986 14.4228 37.0568 18.1356 38.7363 23.1337C39.7726 21.0631 40.9161 19.1353 42.0953 17.3145L42.3097 16.9932C44.4895 13.8159 46.9909 11.2455 49.7067 9.35342L49.9926 9.17492C52.8871 7.24711 55.996 6.28321 59.3193 6.28321C61.5705 6.28321 63.3573 6.81871 64.608 7.85401C65.9659 8.96072 66.6806 10.6386 66.6806 12.7092C66.6806 14.7084 66.1088 16.5291 64.9653 18.1356C63.4287 20.3848 61.7135 20.8489 60.5342 20.8489C59.7123 20.8489 58.7833 20.599 57.7112 20.0635C56.8179 19.6351 55.9602 19.4208 55.2456 19.4208C53.4588 19.4208 51.6007 20.6704 49.7425 23.098C47.5627 25.8469 45.3114 30.0952 43.0244 35.7358C44.2394 39.0559 45.4901 42.0547 46.7765 44.6251L47.0266 45.1249C48.2774 47.5168 49.6353 49.4446 51.0646 50.837C52.3868 52.0508 53.8519 52.6577 55.4957 52.6577C55.9602 52.6577 56.3533 52.622 56.6392 52.5506H56.6749C57.1752 52.4435 57.5683 52.3721 57.9256 52.3007C58.4259 52.1579 58.8547 52.0865 59.2478 52.0865C60.4985 52.0865 61.6063 52.622 62.2852 53.5859C62.857 54.3713 63.1071 55.4066 63.1071 56.7275C63.1071 58.2269 62.6783 59.6906 61.8207 61.1543C61.0345 62.5109 59.8196 63.689 58.2115 64.5815L58.1758 64.6172C56.4248 65.5454 54.4594 66.0452 52.3153 66.0452ZM35.9133 43.8397L36.7351 46.4101C37.7357 49.5875 38.772 52.265 39.7726 54.4427L40.0227 54.9782C41.3091 57.7628 42.9529 59.9762 44.8826 61.6184C46.848 63.1892 49.3494 64.0103 52.3153 64.0103C54.1021 64.0103 55.7458 63.6176 57.1395 62.8322H57.1752C58.4616 62.0825 59.4622 61.19 60.0697 60.119C60.7486 58.9766 61.106 57.8342 61.106 56.6918C61.106 55.7993 60.9631 55.1567 60.6414 54.6926C60.3198 54.2642 59.8553 54.0143 59.2478 54.0143C59.0334 54.0143 58.7833 54.05 58.4617 54.1571L58.3187 54.1928C57.9971 54.2642 57.604 54.3356 57.1037 54.4427C56.6392 54.5498 56.1032 54.6212 55.4957 54.6212C53.3516 54.6212 51.3862 53.8358 49.7067 52.2293C48.0987 50.6942 46.5978 48.5878 45.2757 46.0174L45.0255 45.4819C43.6676 42.733 42.3097 39.5557 41.059 36.0214L40.9161 35.6644L41.059 35.3074C43.4532 29.3098 45.8474 24.7759 48.1701 21.8485C50.4214 18.9211 52.8156 17.4216 55.2456 17.4216C56.2461 17.4216 57.3896 17.7073 58.5689 18.2785C59.3907 18.6712 60.034 18.8853 60.5342 18.8853C61.5705 18.8853 62.4996 18.2428 63.3573 17.0289C64.2864 15.7794 64.7152 14.3514 64.7152 12.7449C64.7152 11.2812 64.2506 10.1388 63.3573 9.42482C62.4639 8.67511 61.106 8.31812 59.3193 8.31812C56.4248 8.31812 53.6375 9.17492 51.1004 10.8885L50.8502 11.067C48.3488 12.8163 46.0261 15.2082 43.9535 18.207L43.7391 18.4926C42.1668 20.8489 40.7374 23.4907 39.451 26.2753L38.3789 28.6672L37.6285 26.1682C35.8418 20.2777 33.8049 15.8865 31.5537 13.1376C29.0165 9.96032 25.6932 8.35381 21.7267 8.35381C19.2968 8.35381 17.2956 8.88932 15.7591 9.96032C14.294 11.0313 13.5435 12.4236 13.5435 14.0658C13.5435 15.1368 13.8651 16.1007 14.4726 16.9575C15.1516 17.7786 15.7591 18.1356 16.3308 17.9928H16.4023C16.974 17.8857 17.51 17.8144 18.0103 17.743C18.5106 17.6359 19.0109 17.5645 19.4754 17.5645C22.6558 17.5645 25.3359 19.3495 27.5157 22.8481C29.624 26.2396 31.5894 30.7735 33.3046 36.3427L33.4118 36.664L33.2689 36.9853C31.1248 42.3046 29.088 46.5886 27.1941 49.6589L27.0154 49.9445C25.0143 53.1218 22.9417 54.7283 20.7619 54.7283C20.0472 54.7283 19.3325 54.5498 18.6535 54.2285L18.5821 54.1928C17.9031 53.8001 17.4386 53.2646 17.1527 52.5863L17.0455 52.3721C16.7954 51.9794 16.5452 51.6581 16.2236 51.4082L16.1879 51.3725C15.902 51.0869 15.5089 50.9798 15.0086 50.9798C13.8651 50.9798 12.7574 51.5867 11.6853 52.8362L11.5781 52.979C10.5776 54.2285 10.0416 55.7279 10.0416 57.4772C10.0416 59.4407 10.7563 61.0472 12.1856 62.261C13.6507 63.4391 15.5089 64.046 17.7245 64.046C21.691 64.046 25.1215 62.2967 27.873 58.8338C30.303 55.7993 32.6614 51.5867 34.877 46.3387L35.9133 43.8397Z" fill="#0A0B39"/>
</svg>
